<svg xmlns="http://www.w3.org/2000/svg" viewBox="0 0 565 761.69"><defs><style>.a{fill:#010101;}</style></defs><title>1516 bold logo</title><path class="a" d="M137,732.07a79.07,79.07,0,0,0,158.14.41c0-43.63-35.76-78.87-79.39-78.87-15,0-27.75,4.21-41.75,11.5V627.65a18.66,18.66,0,0,0-18.61-19c-10.48,0-18.39,8.49-18.39,19V732.07Zm79.43,41.63a41.08,41.08,0,1,1,41.08-41.08A41.08,41.08,0,0,1,216.43,773.69Z" transform="translate(-137 -49.92)"/><path class="a" d="M392.23,653.61a79,79,0,1,0,79,79A79,79,0,0,0,392.23,653.61Zm0,120.08a41.08,41.08,0,1,1,41.08-41.08A41.08,41.08,0,0,1,392.23,773.69Z" transform="translate(-137 -49.92)"/><path class="a" d="M702,627.65c0-10.48-8-19-18.44-19a18.62,18.62,0,0,0-18.56,19v37.45a80.75,80.75,0,0,0-41.63-11.5c-43.63,0-79.29,35.37-79.29,79a78.91,78.91,0,0,0,78.9,79c43.63,0,79-35.91,79-79.55V627.65Zm-79.2,146a41.08,41.08,0,1,1,41.08-41.08A41.08,41.08,0,0,1,622.8,773.69Z" transform="translate(-137 -49.92)"/><path class="a" d="M507.5,608.69c-10.48,0-18.5,8.49-18.5,19v165c0,10.48,8,19,18.5,19s18.5-8.49,18.5-19v-165C526,617.18,518,608.69,507.5,608.69Z" transform="translate(-137 -49.92)"/><path class="a" d="M523,113.39a120.78,120.78,0,0,0-213.28,1.21L155,382.53a120.78,120.78,0,0,0,107.69,184.1l309.41,0.07A120.78,120.78,0,0,0,677.69,381.38ZM462.17,508.83l-90.89,0a6.11,6.11,0,0,1-5.44-8.87A120.78,120.78,0,0,0,265,325.41a6.11,6.11,0,0,1-5-9.15l45.48-78.7a6.11,6.11,0,0,1,10.4-.28,120.78,120.78,0,0,0,201.53,0,6.11,6.11,0,0,1,10.41.28l45.41,78.73a6.11,6.11,0,0,1-5,9.15A120.78,120.78,0,0,0,467.61,500,6.11,6.11,0,0,1,462.17,508.83ZM416.71,107.89a62.8,62.8,0,1,1-62.8,62.8A62.8,62.8,0,0,1,416.71,107.89ZM203.4,477.36a62.8,62.8,0,1,1,85.79,23A62.8,62.8,0,0,1,203.4,477.36Zm426.63,0a62.8,62.8,0,1,1-23-85.79A62.8,62.8,0,0,1,630,477.36Z" transform="translate(-137 -49.92)"/></svg>
